<mxfile host="app.diagrams.net" modified="2023-01-11T08:11:57.487Z" agent="5.0 (Macintosh; Intel Mac OS X 10_15_7) AppleWebKit/537.36 (KHTML, like Gecko) Chrome/108.0.0.0 Safari/537.36" version="20.8.3" etag="2CitLG88JBWv_ArKyjgP" type="github">
  <diagram id="MYT1-YTAsDDfwerzHbvg" name="페이지-1">
    <mxGraphModel dx="795" dy="776" grid="1" gridSize="10" guides="1" tooltips="1" connect="1" arrows="1" fold="1" page="1" pageScale="1" pageWidth="827" pageHeight="1169" math="0" shadow="0">
      <root>
        <mxCell id="0" />
        <mxCell id="1" parent="0" />
        <mxCell id="i8UvRj9loqyy-tUFS08U-14" value="" style="rounded=0;orthogonalLoop=1;jettySize=auto;html=1;entryX=0;entryY=0.5;entryDx=0;entryDy=0;endArrow=none;endFill=0;exitX=1;exitY=0.3333333333333333;exitDx=0;exitDy=0;exitPerimeter=0;" edge="1" parent="1" source="i8UvRj9loqyy-tUFS08U-1" target="i8UvRj9loqyy-tUFS08U-3">
          <mxGeometry relative="1" as="geometry" />
        </mxCell>
        <mxCell id="i8UvRj9loqyy-tUFS08U-1" value="Actor" style="shape=umlActor;verticalLabelPosition=bottom;verticalAlign=top;html=1;outlineConnect=0;" vertex="1" parent="1">
          <mxGeometry x="70" y="230" width="30" height="60" as="geometry" />
        </mxCell>
        <mxCell id="i8UvRj9loqyy-tUFS08U-2" value="boarding-express" style="shape=umlFrame;whiteSpace=wrap;html=1;width=120;height=50;" vertex="1" parent="1">
          <mxGeometry x="170" y="70" width="670" height="660" as="geometry" />
        </mxCell>
        <mxCell id="i8UvRj9loqyy-tUFS08U-17" style="edgeStyle=none;rounded=0;orthogonalLoop=1;jettySize=auto;html=1;entryX=0;entryY=0.5;entryDx=0;entryDy=0;endArrow=classic;endFill=1;dashed=1;" edge="1" parent="1" source="i8UvRj9loqyy-tUFS08U-3" target="i8UvRj9loqyy-tUFS08U-8">
          <mxGeometry relative="1" as="geometry" />
        </mxCell>
        <mxCell id="i8UvRj9loqyy-tUFS08U-18" value="&amp;lt;&amp;lt;include&amp;gt;&amp;gt;" style="edgeLabel;html=1;align=center;verticalAlign=middle;resizable=0;points=[];" vertex="1" connectable="0" parent="i8UvRj9loqyy-tUFS08U-17">
          <mxGeometry x="-0.4173" y="1" relative="1" as="geometry">
            <mxPoint x="24" y="1" as="offset" />
          </mxGeometry>
        </mxCell>
        <mxCell id="i8UvRj9loqyy-tUFS08U-3" value="회원 로그인" style="rounded=1;whiteSpace=wrap;html=1;arcSize=40;fillColor=#d5e8d4;strokeColor=#82b366;" vertex="1" parent="1">
          <mxGeometry x="294" y="150" width="120" height="40" as="geometry" />
        </mxCell>
        <mxCell id="i8UvRj9loqyy-tUFS08U-5" value="회원 가입" style="rounded=1;whiteSpace=wrap;html=1;arcSize=40;fillColor=#d5e8d4;strokeColor=#82b366;" vertex="1" parent="1">
          <mxGeometry x="294" y="280" width="120" height="40" as="geometry" />
        </mxCell>
        <mxCell id="i8UvRj9loqyy-tUFS08U-6" value="릴레이 소설보기" style="rounded=1;whiteSpace=wrap;html=1;arcSize=40;fillColor=#d5e8d4;strokeColor=#82b366;" vertex="1" parent="1">
          <mxGeometry x="294" y="430" width="120" height="40" as="geometry" />
        </mxCell>
        <mxCell id="i8UvRj9loqyy-tUFS08U-8" value="인증" style="rounded=1;whiteSpace=wrap;html=1;arcSize=40;fillColor=#d5e8d4;strokeColor=#82b366;" vertex="1" parent="1">
          <mxGeometry x="560" y="150" width="120" height="40" as="geometry" />
        </mxCell>
        <mxCell id="i8UvRj9loqyy-tUFS08U-19" value="&amp;lt;&amp;lt;extend&amp;gt;&amp;gt;" style="edgeStyle=none;rounded=0;orthogonalLoop=1;jettySize=auto;html=1;entryX=1;entryY=0.5;entryDx=0;entryDy=0;dashed=1;endArrow=classic;endFill=1;" edge="1" parent="1" source="i8UvRj9loqyy-tUFS08U-9" target="i8UvRj9loqyy-tUFS08U-3">
          <mxGeometry relative="1" as="geometry" />
        </mxCell>
        <mxCell id="i8UvRj9loqyy-tUFS08U-9" value="로그인 실패" style="rounded=1;whiteSpace=wrap;html=1;arcSize=40;fillColor=#d5e8d4;strokeColor=#82b366;" vertex="1" parent="1">
          <mxGeometry x="560" y="230" width="120" height="40" as="geometry" />
        </mxCell>
        <mxCell id="i8UvRj9loqyy-tUFS08U-10" value="릴레이보드 정렬" style="rounded=1;whiteSpace=wrap;html=1;arcSize=40;fillColor=#d5e8d4;strokeColor=#82b366;" vertex="1" parent="1">
          <mxGeometry x="530" y="370" width="120" height="40" as="geometry" />
        </mxCell>
        <mxCell id="i8UvRj9loqyy-tUFS08U-11" value="릴레이보드 검색" style="rounded=1;whiteSpace=wrap;html=1;arcSize=40;fillColor=#d5e8d4;strokeColor=#82b366;" vertex="1" parent="1">
          <mxGeometry x="530" y="430" width="120" height="40" as="geometry" />
        </mxCell>
        <mxCell id="i8UvRj9loqyy-tUFS08U-12" value="릴레이소설 쓰기, 수정, 삭제" style="rounded=1;whiteSpace=wrap;html=1;arcSize=40;fillColor=#d5e8d4;strokeColor=#82b366;" vertex="1" parent="1">
          <mxGeometry x="490" y="570" width="120" height="40" as="geometry" />
        </mxCell>
        <mxCell id="i8UvRj9loqyy-tUFS08U-13" value="댓글 보기, 쓰기, 수정, 삭제" style="rounded=1;whiteSpace=wrap;html=1;arcSize=40;fillColor=#d5e8d4;strokeColor=#82b366;" vertex="1" parent="1">
          <mxGeometry x="490" y="660" width="120" height="40" as="geometry" />
        </mxCell>
        <mxCell id="i8UvRj9loqyy-tUFS08U-15" value="" style="rounded=0;orthogonalLoop=1;jettySize=auto;html=1;entryX=0;entryY=0.5;entryDx=0;entryDy=0;endArrow=none;endFill=0;exitX=1;exitY=0.3333333333333333;exitDx=0;exitDy=0;exitPerimeter=0;" edge="1" parent="1" source="i8UvRj9loqyy-tUFS08U-1" target="i8UvRj9loqyy-tUFS08U-5">
          <mxGeometry relative="1" as="geometry">
            <mxPoint x="110" y="264" as="sourcePoint" />
            <mxPoint x="304" y="180" as="targetPoint" />
          </mxGeometry>
        </mxCell>
        <mxCell id="i8UvRj9loqyy-tUFS08U-16" value="" style="rounded=0;orthogonalLoop=1;jettySize=auto;html=1;endArrow=none;endFill=0;entryX=0;entryY=0.5;entryDx=0;entryDy=0;" edge="1" parent="1" target="i8UvRj9loqyy-tUFS08U-6">
          <mxGeometry relative="1" as="geometry">
            <mxPoint x="100" y="250" as="sourcePoint" />
            <mxPoint x="314" y="190" as="targetPoint" />
          </mxGeometry>
        </mxCell>
        <mxCell id="i8UvRj9loqyy-tUFS08U-20" value="&lt;div style=&quot;text-align: left;&quot;&gt;&lt;span style=&quot;font-size: 9px; background-color: initial;&quot;&gt;*&lt;/span&gt;&lt;/div&gt;&lt;font style=&quot;font-size: 9px;&quot;&gt;include : 이 일이 일어남으로써 반드시 발생하는 부수적인 일&lt;br style=&quot;font-size: 9px;&quot;&gt;extend: 이 일이 일어남으로써 발생할 수 있는 분기 중의 하나&lt;/font&gt;" style="text;html=1;align=center;verticalAlign=middle;resizable=0;points=[];autosize=1;strokeColor=none;fillColor=none;" vertex="1" parent="1">
          <mxGeometry x="420" y="80" width="260" height="60" as="geometry" />
        </mxCell>
      </root>
    </mxGraphModel>
  </diagram>
</mxfile>
